# xmcd CD database file
#
# Track frame offsets:
#	150
#	10605
#	24298
#	40503
#	51227
#	61002
#	72795
#	88236
#	98533
#	110159
#	127506
#
# Disc length: 1837 seconds
#
# Revision: 0
# Processed by: cddbd v1.5.1PL0 Copyright (c) Steve Scherf et al.
# Submitted via: CDex 1.50
#
DISCID=78072b0b
DTITLE=The Immortal Lee County Killers 3 - These Bones Will Rise To Love You Again
DYEAR=2005
DGENRE=Blues
TTITLE0=Turn On The Panther
TTITLE1=Revolution Summer
TTITLE2=Blues
TTITLE3=Boom Boom
TTITLE4=Airliner
TTITLE5=Stitched in Sin
TTITLE6=The Damned Don't Cry
TTITLE7=Wide as the Sky
TTITLE8=Sonic Angel
TTITLE9=Lights Down Low
TTITLE10=No More My Lord
EXTD=YEAR: 2005
EXTT0=
EXTT1=
EXTT2=
EXTT3=
EXTT4=
EXTT5=
EXTT6=
EXTT7=
EXTT8=
EXTT9=
EXTT10=
PLAYORDER=
